<svg width="25" height="27" viewBox="0 0 25 27" fill="none" xmlns="http://www.w3.org/2000/svg">
            <path d="M10.0216 24.7431L10.0216 24.7431L10.018 24.7386L1.38288 13.8427C1.20869 13.6227 1.2051 13.3694 1.37084 13.1455L9.99665 2.26141L10.0002 2.2569C10.4719 1.6561 11.2942 1.25001 12.2019 1.25001C13.3552 1.25001 14.1978 1.82785 14.6012 2.53264C14.9949 3.22054 14.9983 4.05538 14.4092 4.79455L14.406 4.79863L8.14307 12.7251L7.53076 13.5L8.14307 14.275L14.4048 22.1999C14.405 22.2002 14.4052 22.2004 14.4054 22.2006C14.9882 22.9409 14.985 23.7798 14.592 24.4694C14.1907 25.1735 13.3538 25.75 12.2019 25.75C11.3014 25.75 10.4974 25.3492 10.0216 24.7431Z" fill="#8D8D8D" stroke="#E4E8F0" stroke-width="2.5"/>
            <path d="M9.33653 13.8434L9.336 13.8427C9.16181 13.6227 9.15823 13.3694 9.32397 13.1455L17.9498 2.26141L17.9533 2.2569C18.425 1.6561 19.2473 1.25001 20.155 1.25001C21.3083 1.25001 22.1509 1.82785 22.5543 2.53264C22.948 3.22054 22.9514 4.05538 22.3623 4.79455L22.3591 4.79863L16.0962 12.7251L15.4839 13.5L16.0962 14.275L22.3591 22.2014L22.3591 22.2014L22.3623 22.2055C22.9514 22.9446 22.948 23.7795 22.5543 24.4674C22.1509 25.1722 21.3083 25.75 20.155 25.75C19.2604 25.75 18.449 25.3532 17.9461 24.734L9.33653 13.8434Z" fill="#8D8D8D" stroke="#E4E8F0" stroke-width="2.5"/>
            </svg>