<svg width="28" height="28" viewBox="0 0 28 28" fill="none" xmlns="http://www.w3.org/2000/svg">
<g clip-path="url(#clip0_355_3709)">
<path d="M13.9993 26.8307C21.0868 26.8307 26.8327 21.0849 26.8327 13.9974C26.8327 6.9099 21.0868 1.16406 13.9993 1.16406M13.9993 26.8307C6.91185 26.8307 1.16602 21.0849 1.16602 13.9974C1.16602 6.9099 6.91185 1.16406 13.9993 1.16406M13.9993 26.8307C17.4993 26.8307 18.666 20.9974 18.666 13.9974C18.666 6.9974 17.4993 1.16406 13.9993 1.16406M13.9993 26.8307C10.4993 26.8307 9.33268 20.9974 9.33268 13.9974C9.33268 6.9974 10.4993 1.16406 13.9993 1.16406M2.33268 18.6641H25.666M2.33268 9.33073H25.666" stroke="black" stroke-width="2"/>
</g>
<defs>
<clipPath id="clip0_355_3709">
<rect width="28" height="28" fill="white"/>
</clipPath>
</defs>
</svg>
