<svg width="30" height="28" viewBox="0 0 30 28" fill="none" xmlns="http://www.w3.org/2000/svg">
<g clip-path="url(#clip0_384_5583)">
<path d="M16.9983 24.9993V22.9996C16.9983 21.9388 16.5769 20.9215 15.8268 20.1714C15.0768 19.4214 14.0594 19 12.9987 19H4.99957C3.93882 19 2.92151 19.4214 2.17145 20.1714C1.42138 20.9215 1 21.9388 1 22.9996V24.9993" stroke="black" stroke-width="2" stroke-linecap="round" stroke-linejoin="round"/>
<path d="M9 15C11.2091 15 13 13.2091 13 11C13 8.79086 11.2091 7 9 7C6.79086 7 5 8.79086 5 11C5 13.2091 6.79086 15 9 15Z" stroke="black" stroke-width="2" stroke-linecap="round" stroke-linejoin="round"/>
<path d="M22.9961 24.995V22.995C22.9954 22.1087 22.7004 21.2478 22.1575 20.5473C21.6145 19.8469 20.8542 19.3466 19.9961 19.125" stroke="black" stroke-width="2" stroke-linecap="round" stroke-linejoin="round"/>
<path d="M16 7.13281C16.8604 7.35311 17.623 7.85351 18.1676 8.55512C18.7122 9.25673 19.0078 10.1196 19.0078 11.0078C19.0078 11.896 18.7122 12.7589 18.1676 13.4605C17.623 14.1621 16.8604 14.6625 16 14.8828" stroke="black" stroke-width="2" stroke-linecap="round" stroke-linejoin="round"/>
</g>
<circle cx="26" cy="4" r="4" fill="#F5444F"/>
<defs>
<clipPath id="clip0_384_5583">
<rect width="23.9974" height="23.9974" fill="white" transform="translate(0 4)"/>
</clipPath>
</defs>
</svg>
