<svg width="30" height="30" viewBox="0 0 30 30" fill="none" xmlns="http://www.w3.org/2000/svg">
            <path d="M22.5 10C22.5 8.01088 21.7098 6.10322 20.3033 4.6967C18.8968 3.29018 16.9891 2.5 15 2.5C13.0109 2.5 11.1032 3.29018 9.6967 4.6967C8.29018 6.10322 7.5 8.01088 7.5 10C7.5 18.75 3.75 21.25 3.75 21.25H26.25C26.25 21.25 22.5 18.75 22.5 10Z" stroke="black" stroke-width="2" stroke-linecap="round" stroke-linejoin="round"/>
            <path d="M17.1614 26.25C16.9416 26.6289 16.6262 26.9434 16.2466 27.162C15.867 27.3806 15.4367 27.4957 14.9987 27.4957C14.5606 27.4957 14.1303 27.3806 13.7508 27.162C13.3712 26.9434 13.0557 26.6289 12.8359 26.25" stroke="black" stroke-width="2" stroke-linecap="round" stroke-linejoin="round"/>
            </svg>