<svg width="30" height="30" viewBox="0 0 30 30" fill="none" xmlns="http://www.w3.org/2000/svg">
<path d="M22.5 10C22.5 8.01088 21.7098 6.10322 20.3033 4.6967C18.8968 3.29018 16.9891 2.5 15 2.5C13.0109 2.5 11.1032 3.29018 9.6967 4.6967C8.29018 6.10322 7.5 8.01088 7.5 10C7.5 18.75 3.75 21.25 3.75 21.25H26.25C26.25 21.25 22.5 18.75 22.5 10Z" stroke="#A9CFE2" stroke-width="2" stroke-linecap="round" stroke-linejoin="round"/>
<path d="M17.1634 26.25C16.9436 26.6289 16.6281 26.9434 16.2485 27.162C15.869 27.3806 15.4386 27.4957 15.0006 27.4957C14.5626 27.4957 14.1323 27.3806 13.7527 27.162C13.3731 26.9434 13.0577 26.6289 12.8379 26.25" stroke="#A9CFE2" stroke-width="2" stroke-linecap="round" stroke-linejoin="round"/>
</svg>
