<svg width="24" height="24" viewBox="0 0 24 24" fill="none" xmlns="http://www.w3.org/2000/svg">
<g clip-path="url(#clip0_1208_2037)">
<path d="M12 15C13.6569 15 15 13.6569 15 12C15 10.3431 13.6569 9 12 9C10.3431 9 9 10.3431 9 12C9 13.6569 10.3431 15 12 15Z" stroke="#A9CFE2" stroke-width="1.99978" stroke-linecap="round" stroke-linejoin="round"/>
<path d="M19.398 14.9985C19.2649 15.3001 19.2252 15.6346 19.284 15.959C19.3428 16.2833 19.4975 16.5826 19.728 16.8183L19.788 16.8783C19.9739 17.064 20.1214 17.2846 20.222 17.5273C20.3227 17.7701 20.3745 18.0303 20.3745 18.2931C20.3745 18.5559 20.3227 18.8162 20.222 19.0589C20.1214 19.3017 19.9739 19.5222 19.788 19.708C19.6022 19.8939 19.3817 20.0414 19.1389 20.142C18.8961 20.2427 18.6359 20.2945 18.3731 20.2945C18.1103 20.2945 17.8501 20.2427 17.6073 20.142C17.3645 20.0414 17.144 19.8939 16.9583 19.708L16.8983 19.648C16.6626 19.4175 16.3633 19.2628 16.039 19.204C15.7146 19.1452 15.3801 19.1849 15.0785 19.318C14.7827 19.4448 14.5305 19.6552 14.3529 19.9235C14.1752 20.1917 14.0799 20.5061 14.0786 20.8278V20.9978C14.0786 21.5282 13.8679 22.0369 13.4929 22.4119C13.1178 22.7869 12.6092 22.9976 12.0788 22.9976C11.5484 22.9976 11.0398 22.7869 10.6647 22.4119C10.2897 22.0369 10.079 21.5282 10.079 20.9978V20.9078C10.0713 20.5769 9.96415 20.2559 9.77156 19.9866C9.57897 19.7174 9.30983 19.5123 8.99913 19.398C8.69755 19.2649 8.36301 19.2252 8.03865 19.284C7.71429 19.3428 7.41498 19.4975 7.17933 19.728L7.11934 19.788C6.93361 19.9739 6.71306 20.1214 6.47029 20.222C6.22752 20.3227 5.96729 20.3745 5.70449 20.3745C5.44169 20.3745 5.18146 20.3227 4.93869 20.222C4.69592 20.1214 4.47537 19.9739 4.28964 19.788C4.10371 19.6022 3.95621 19.3817 3.85557 19.1389C3.75493 18.8961 3.70313 18.6359 3.70313 18.3731C3.70313 18.1103 3.75493 17.8501 3.85557 17.6073C3.95621 17.3645 4.10371 17.144 4.28964 16.9583L4.34964 16.8983C4.58015 16.6626 4.73478 16.3633 4.79359 16.039C4.85241 15.7146 4.8127 15.3801 4.6796 15.0785C4.55285 14.7827 4.34239 14.5305 4.07413 14.3529C3.80587 14.1752 3.49152 14.0799 3.16976 14.0786H2.99978C2.46941 14.0786 1.96075 13.8679 1.58572 13.4929C1.21069 13.1178 1 12.6092 1 12.0788C1 11.5484 1.21069 11.0398 1.58572 10.6647C1.96075 10.2897 2.46941 10.079 2.99978 10.079H3.08977C3.42073 10.0713 3.74171 9.96415 4.01097 9.77156C4.28024 9.57897 4.48534 9.30983 4.59961 8.99913C4.73271 8.69755 4.77241 8.36301 4.7136 8.03865C4.65479 7.71429 4.50016 7.41498 4.26965 7.17933L4.20965 7.11934C4.02372 6.93361 3.87622 6.71306 3.77558 6.47029C3.67494 6.22752 3.62314 5.96729 3.62314 5.70449C3.62314 5.44169 3.67494 5.18146 3.77558 4.93869C3.87622 4.69592 4.02372 4.47537 4.20965 4.28964C4.39538 4.10371 4.61593 3.95621 4.8587 3.85557C5.10147 3.75493 5.3617 3.70313 5.6245 3.70313C5.8873 3.70313 6.14753 3.75493 6.3903 3.85557C6.63307 3.95621 6.85362 4.10371 7.03934 4.28964L7.09934 4.34964C7.33499 4.58015 7.6343 4.73478 7.95866 4.79359C8.28302 4.85241 8.61756 4.8127 8.91914 4.6796H8.99913C9.29487 4.55285 9.54709 4.34239 9.72475 4.07413C9.9024 3.80587 9.99774 3.49152 9.99902 3.16976V2.99978C9.99902 2.46941 10.2097 1.96075 10.5847 1.58572C10.9598 1.21069 11.4684 1 11.9988 1C12.5292 1 13.0378 1.21069 13.4129 1.58572C13.7879 1.96075 13.9986 2.46941 13.9986 2.99978V3.08977C13.9999 3.41152 14.0952 3.72588 14.2729 3.99414C14.4505 4.2624 14.7027 4.47286 14.9985 4.59961C15.3001 4.73271 15.6346 4.77241 15.959 4.7136C16.2833 4.65479 16.5826 4.50016 16.8183 4.26965L16.8783 4.20965C17.064 4.02372 17.2846 3.87622 17.5273 3.77558C17.7701 3.67494 18.0303 3.62314 18.2931 3.62314C18.5559 3.62314 18.8162 3.67494 19.0589 3.77558C19.3017 3.87622 19.5222 4.02372 19.708 4.20965C19.8939 4.39538 20.0414 4.61593 20.142 4.8587C20.2427 5.10147 20.2945 5.3617 20.2945 5.6245C20.2945 5.8873 20.2427 6.14753 20.142 6.3903C20.0414 6.63307 19.8939 6.85362 19.708 7.03934L19.648 7.09934C19.4175 7.33499 19.2628 7.6343 19.204 7.95866C19.1452 8.28302 19.1849 8.61756 19.318 8.91914V8.99913C19.4448 9.29487 19.6552 9.54709 19.9235 9.72475C20.1917 9.9024 20.5061 9.99774 20.8278 9.99902H20.9978C21.5282 9.99902 22.0369 10.2097 22.4119 10.5847C22.7869 10.9598 22.9976 11.4684 22.9976 11.9988C22.9976 12.5292 22.7869 13.0378 22.4119 13.4129C22.0369 13.7879 21.5282 13.9986 20.9978 13.9986H20.9078C20.5861 13.9999 20.2717 14.0952 20.0035 14.2729C19.7352 14.4505 19.5248 14.7027 19.398 14.9985V14.9985Z" stroke="#A9CFE2" stroke-width="1.99978" stroke-linecap="round" stroke-linejoin="round"/>
</g>
<defs>
<clipPath id="clip0_1208_2037">
<rect width="23.9974" height="23.9974" fill="white"/>
</clipPath>
</defs>
</svg>
