<svg width="25" height="30" viewBox="0 0 25 30" fill="none" xmlns="http://www.w3.org/2000/svg">
            <path d="M12.54 5.72727L10.03 8.45455H15.03L12.54 5.72727ZM4.5 10.6364V24.8182H20.5V10.6364H4.5ZM12.5 3L17.5 8.45455H20.5C21.0304 8.45455 21.5391 8.68442 21.9142 9.09359C22.2893 9.50276 22.5 10.0577 22.5 10.6364V24.8182C22.5 25.3968 22.2893 25.9518 21.9142 26.361C21.5391 26.7701 21.0304 27 20.5 27H4.5C3.96957 27 3.46086 26.7701 3.08579 26.361C2.71071 25.9518 2.5 25.3968 2.5 24.8182V10.6364C2.5 10.0577 2.71071 9.50276 3.08579 9.09359C3.46086 8.68442 3.96957 8.45455 4.5 8.45455H7.5L12.5 3ZM7.5 22.6364V18.2727H12.5V22.6364H7.5ZM14.5 21.5455V13.9091H18.5V21.5455H14.5ZM6.5 16.0909V12.8182H11.5V16.0909H6.5Z" fill="black"/>
            </svg>