<svg width="29" height="29" viewBox="0 0 29 29" fill="none" xmlns="http://www.w3.org/2000/svg">
<path class="change-color" d="M16.5729 23.0977L9.77602 4.97274C9.68697 4.7352 9.52754 4.5305 9.31905 4.38599C9.11055 4.24149 8.86291 4.16406 8.60923 4.16406C8.35555 4.16406 8.10791 4.24149 7.89941 4.38599C7.69091 4.5305 7.53148 4.7352 7.44243 4.97274L0.645556 23.0977C0.53314 23.4064 0.547142 23.7469 0.684518 24.0453C0.821894 24.3437 1.07153 24.5758 1.37912 24.691C1.68672 24.8063 2.02738 24.7955 2.32702 24.6609C2.62666 24.5263 2.86103 24.2788 2.97915 23.9723L5.02727 18.511C5.03534 18.4894 5.0498 18.4708 5.06873 18.4576C5.08765 18.4445 5.11014 18.4374 5.13319 18.4373H12.0853C12.1083 18.4374 12.1308 18.4445 12.1497 18.4576C12.1687 18.4708 12.1831 18.4894 12.1912 18.511L14.2393 23.9723C14.3574 24.2788 14.5918 24.5263 14.8914 24.6609C15.1911 24.7955 15.5317 24.8063 15.8393 24.691C16.1469 24.5758 16.3966 24.3437 16.5339 24.0453C16.6713 23.7469 16.6853 23.4064 16.5729 23.0977ZM6.04681 15.7911L8.50331 9.24061C8.51146 9.21912 8.52596 9.20061 8.54488 9.18755C8.5638 9.1745 8.58624 9.1675 8.60923 9.1675C8.63221 9.1675 8.65466 9.1745 8.67358 9.18755C8.69249 9.20061 8.70699 9.21912 8.71515 9.24061L11.1716 15.7922C11.178 15.8094 11.1802 15.8278 11.1779 15.8459C11.1757 15.864 11.1691 15.8814 11.1587 15.8964C11.1483 15.9114 11.1344 15.9237 11.1182 15.9322C11.102 15.9407 11.084 15.9451 11.0657 15.9452H6.15272C6.13445 15.9451 6.11645 15.9407 6.10027 15.9322C6.08409 15.9237 6.0702 15.9114 6.05979 15.8964C6.04939 15.8814 6.04277 15.864 6.04051 15.8459C6.03825 15.8278 6.04041 15.8094 6.04681 15.7922V15.7911ZM22.6997 9.60141C20.3367 9.58442 18.2206 10.9534 17.3189 13.0791C17.1897 13.3833 17.1866 13.7264 17.3104 14.0328C17.4341 14.3393 17.6745 14.584 17.9787 14.7132C18.2829 14.8424 18.626 14.8455 18.9324 14.7217C19.2389 14.598 19.4836 14.3576 19.6128 14.0534C20.1158 12.8701 21.299 12.1027 22.6329 12.0936C24.4635 12.0811 25.9413 13.5946 25.9413 15.4269C25.9413 15.449 25.9327 15.4701 25.9174 15.486C25.9021 15.5019 25.8812 15.5111 25.8591 15.5119C24.6176 15.5464 23.1449 15.6291 21.8308 15.7837C18.7298 16.1485 16.8788 17.8392 16.8788 20.3065C16.8788 21.62 17.3749 22.7987 18.2761 23.6302C19.1217 24.409 20.2772 24.8377 21.5233 24.8377C23.2791 24.8377 24.7909 24.3846 25.9379 23.5225H25.9413C25.9405 23.6862 25.9721 23.8484 26.0341 23.9998C26.096 24.1513 26.1872 24.289 26.3024 24.4052C26.4176 24.5215 26.5546 24.6138 26.7055 24.6771C26.8564 24.7404 27.0183 24.7733 27.182 24.774C27.3456 24.7747 27.5078 24.7432 27.6592 24.6812C27.8107 24.6193 27.9485 24.5281 28.0647 24.4129C28.1809 24.2976 28.2733 24.1607 28.3365 24.0098C28.3998 23.8588 28.4327 23.6969 28.4334 23.5333V15.4337C28.4334 12.2516 25.8846 9.62463 22.6997 9.60141ZM21.5233 22.3456C20.5304 22.3456 19.3709 21.8114 19.3709 20.3065C19.3709 19.7021 19.5879 19.279 20.075 18.9341C20.5491 18.5982 21.2758 18.3586 22.122 18.2589C23.3182 18.1179 24.6606 18.0403 25.8116 18.0057C25.8269 18.0057 25.8421 18.0088 25.8563 18.0149C25.8704 18.0209 25.8831 18.0298 25.8937 18.0409C25.9043 18.052 25.9125 18.0652 25.9179 18.0796C25.9232 18.094 25.9256 18.1093 25.9248 18.1247C25.7713 20.9635 24.3247 22.3456 21.5233 22.3456Z" fill="black"/>
</svg>
