<svg width="45" height="45" viewBox="0 0 45 45" fill="none" xmlns="http://www.w3.org/2000/svg">
<path fill-rule="evenodd" clip-rule="evenodd" d="M35.6255 8.88867V14.9993C36.3641 14.9993 37.0956 15.1448 37.778 15.4275C38.4605 15.7102 39.0806 16.1245 39.6029 16.6468C40.1253 17.1692 40.5396 17.7892 40.8223 18.4717C41.105 19.1542 41.2505 19.8856 41.2505 20.6243C41.2505 21.363 41.105 22.0944 40.8223 22.7769C40.5396 23.4593 40.1253 24.0794 39.6029 24.6018C39.0806 25.1241 38.4605 25.5384 37.778 25.8211C37.0956 26.1038 36.3641 26.2493 35.6255 26.2493V31.8743C35.6255 34.9643 32.0986 36.7287 29.6255 34.8743L25.7629 31.9755C23.6983 30.4275 21.2944 29.3939 18.7504 28.9605V34.2931C18.7507 35.5188 18.3078 36.7033 17.5034 37.6283C16.699 38.5532 15.5874 39.1562 14.3735 39.3261C13.1595 39.496 11.9251 39.2213 10.8977 38.5528C9.87034 37.8842 9.11927 36.8668 8.78295 35.688L5.8392 25.383C4.77986 24.132 4.09046 22.6103 3.84849 20.989C3.60652 19.3677 3.82158 17.711 4.46948 16.2052C5.11739 14.6994 6.17247 13.4041 7.51611 12.465C8.85975 11.526 10.4387 10.9803 12.0754 10.8893L17.7342 10.5743C20.5029 10.4202 23.1954 9.61118 25.5904 8.21367L29.9854 5.64867C32.4867 4.1918 35.6255 5.99367 35.6255 8.88867ZM10.5642 28.2705L12.3886 34.6587C12.4764 34.9679 12.6731 35.2349 12.9424 35.4104C13.2117 35.5859 13.5354 35.658 13.8538 35.6134C14.1721 35.5689 14.4636 35.4106 14.6743 35.1679C14.8851 34.9253 15.0009 34.6145 15.0004 34.2931V28.6493L12.0754 28.4862C11.5664 28.4579 11.0608 28.3858 10.5642 28.2705ZM31.8755 8.88867L27.4786 11.4555C24.8074 13.0126 21.8289 13.9686 18.7504 14.2568V25.1674C22.1011 25.6287 25.2904 26.9355 28.0129 28.9755L31.8755 31.8743V8.88867ZM15.0004 14.4818L12.2817 14.6318C11.0169 14.7016 9.82426 15.2431 8.93917 16.1493C8.05407 17.0555 7.54086 18.2605 7.50083 19.5266C7.4608 20.7927 7.89687 22.0278 8.72295 22.9881C9.54903 23.9484 10.7051 24.5641 11.9629 24.7137L12.2817 24.7418L15.0004 24.8918V14.4818ZM35.6255 18.7493V22.4993C36.1034 22.4988 36.563 22.3158 36.9105 21.9877C37.258 21.6596 37.4671 21.2113 37.4951 20.7342C37.5232 20.2571 37.3679 19.7873 37.0612 19.4209C36.7545 19.0544 36.3194 18.8189 35.8448 18.7624L35.6255 18.7493Z" fill="black"/>
</svg>
