<svg width="40" height="30" viewBox="0 0 40 30" fill="none" xmlns="http://www.w3.org/2000/svg">
<path d="M22.9731 27.475L13.2156 1.17349C13.0878 0.82879 12.8589 0.531745 12.5596 0.32205C12.2603 0.112355 11.9048 0 11.5406 0C11.1764 0 10.8209 0.112355 10.5216 0.32205C10.2222 0.531745 9.99337 0.82879 9.86553 1.17349L0.108018 27.475C-0.053365 27.9229 -0.0332629 28.4171 0.163952 28.8501C0.361167 29.2831 0.719541 29.6198 1.16112 29.7871C1.6027 29.9544 2.09175 29.9387 2.52191 29.7433C2.95207 29.548 3.28853 29.1889 3.4581 28.7441L6.39836 20.8191C6.40995 20.7878 6.43071 20.7608 6.45788 20.7417C6.48504 20.7226 6.51733 20.7123 6.55042 20.7123H16.5307C16.5638 20.7123 16.5961 20.7226 16.6233 20.7417C16.6504 20.7608 16.6712 20.7878 16.6828 20.8191L19.6231 28.7441C19.7926 29.1889 20.1291 29.548 20.5592 29.7433C20.9894 29.9387 21.4785 29.9544 21.92 29.7871C22.3616 29.6198 22.72 29.2831 22.9172 28.8501C23.1144 28.4171 23.1345 27.9229 22.9731 27.475ZM7.86199 16.8722L11.3885 7.36668C11.4002 7.33549 11.421 7.30864 11.4482 7.28969C11.4754 7.27074 11.5076 7.2606 11.5406 7.2606C11.5736 7.2606 11.6058 7.27074 11.633 7.28969C11.6601 7.30864 11.6809 7.33549 11.6926 7.36668L15.2192 16.8739C15.2283 16.8987 15.2314 16.9254 15.2282 16.9518C15.2249 16.9781 15.2155 17.0032 15.2005 17.025C15.1856 17.0468 15.1656 17.0646 15.1424 17.077C15.1192 17.0893 15.0933 17.0957 15.0671 17.0958H8.01405C7.98781 17.0957 7.96197 17.0893 7.93874 17.077C7.91551 17.0646 7.89558 17.0468 7.88064 17.025C7.8657 17.0032 7.8562 16.9781 7.85296 16.9518C7.84971 16.9254 7.85281 16.8987 7.86199 16.8739V16.8722ZM31.7687 7.89025C28.3764 7.86559 25.3385 9.85218 24.044 12.9369C23.8586 13.3783 23.8542 13.8761 24.0318 14.3208C24.2095 14.7655 24.5546 15.1206 24.9913 15.3081C25.428 15.4956 25.9205 15.5 26.3604 15.3204C26.8004 15.1409 27.1517 14.792 27.3372 14.3506C28.0592 12.6336 29.7579 11.5199 31.6728 11.5067C34.3008 11.4886 36.4222 13.6848 36.4222 16.3437C36.4223 16.3757 36.41 16.4065 36.388 16.4295C36.366 16.4525 36.336 16.466 36.3043 16.467C34.522 16.5172 32.4078 16.6372 30.5214 16.8615C26.0695 17.3909 23.4122 19.8443 23.4122 23.4246C23.4122 25.3307 24.1245 27.0411 25.4182 28.2477C26.6322 29.3778 28.291 30 30.0799 30C32.6006 30 34.7708 29.3425 36.4174 28.0915H36.4222C36.4212 28.329 36.4665 28.5643 36.5555 28.7841C36.6444 29.0038 36.7753 29.2038 36.9407 29.3724C37.1061 29.541 37.3028 29.6751 37.5194 29.7669C37.7361 29.8587 37.9685 29.9065 38.2034 29.9075C38.4383 29.9086 38.6711 29.8628 38.8886 29.7729C39.106 29.683 39.3038 29.5506 39.4706 29.3834C39.6374 29.2163 39.77 29.0175 39.8609 28.7985C39.9517 28.5795 39.999 28.3446 40 28.1071V16.3536C40 11.736 36.3409 7.92395 31.7687 7.89025ZM30.0799 26.3835C28.6544 26.3835 26.99 25.6085 26.99 23.4246C26.99 22.5476 27.3014 21.9336 28.0007 21.4331C28.6813 20.9457 29.7245 20.598 30.9393 20.4534C32.6567 20.2487 34.5838 20.1361 36.236 20.086C36.2581 20.0859 36.2799 20.0904 36.3002 20.0992C36.3205 20.108 36.3388 20.1208 36.354 20.137C36.3692 20.1531 36.381 20.1722 36.3887 20.1931C36.3964 20.214 36.3998 20.2363 36.3987 20.2586C36.1783 24.378 34.1016 26.3835 30.0799 26.3835Z" fill="#908E8E"/>
</svg>
