<svg width="28" height="24" viewBox="0 0 28 24" fill="none" xmlns="http://www.w3.org/2000/svg">
<path d="M15.229 0.00019295C15.018 0.00837852 14.8166 0.0905013 14.66 0.232193L7.06003 6.55219C6.93594 6.67543 6.78556 6.76896 6.62016 6.82577C6.45476 6.88258 6.27864 6.90118 6.10503 6.88019H1.20803C1.04909 6.87913 0.891532 6.90965 0.74449 6.96998C0.597449 7.03031 0.463857 7.11925 0.351472 7.23164C0.239086 7.34402 0.150146 7.47761 0.0898148 7.62466C0.0294836 7.7717 -0.00103629 7.92926 2.68486e-05 8.08819V15.9142C-0.000770532 16.073 0.0299457 16.2303 0.0903958 16.3771C0.150846 16.5239 0.239828 16.6573 0.352187 16.7695C0.464546 16.8816 0.598047 16.9704 0.744957 17.0306C0.891866 17.0908 1.04926 17.1213 1.20803 17.1202H6.10003C6.27365 17.0992 6.44976 17.1178 6.61516 17.1746C6.78056 17.2314 6.93094 17.325 7.05503 17.4482L14.655 23.7682C15.176 24.2012 15.736 23.9922 15.736 23.4792V0.522193C15.7399 0.453894 15.7296 0.385529 15.7057 0.321429C15.6818 0.257329 15.6449 0.198891 15.5972 0.149818C15.5495 0.100745 15.4922 0.0621058 15.4288 0.0363496C15.3654 0.0105934 15.2974 -0.00171882 15.229 0.00019295ZM25 2.30019L23.209 4.09319C24.7212 6.45871 25.5248 9.20762 25.5248 12.0152C25.5248 14.8228 24.7212 17.5717 23.209 19.9372L24.994 21.7132C26.951 18.8548 27.9986 15.4718 27.9997 12.0076C28.0008 8.54348 26.9552 5.15984 25 2.30019ZM20.667 6.62319L18.905 8.40019C19.6873 9.44438 20.1102 10.714 20.1102 12.0187C20.1102 13.3234 19.6873 14.593 18.905 15.6372L20.661 17.3932C21.8964 15.8711 22.5715 13.9708 22.5734 12.0105C22.5752 10.0501 21.9036 8.14859 20.671 6.62419L20.667 6.62319Z" fill="#908E8E"/>
</svg>
