<svg width="40" height="40" viewBox="0 0 40 40" fill="none" xmlns="http://www.w3.org/2000/svg">
<g clip-path="url(#clip0_355_3045)">
<path d="M19.9993 38.3307C30.1243 38.3307 38.3327 30.1224 38.3327 19.9974C38.3327 9.8724 30.1243 1.66406 19.9993 1.66406M19.9993 38.3307C9.87435 38.3307 1.66602 30.1224 1.66602 19.9974C1.66602 9.8724 9.87435 1.66406 19.9993 1.66406M19.9993 38.3307C24.9993 38.3307 26.666 29.9974 26.666 19.9974C26.666 9.9974 24.9993 1.66406 19.9993 1.66406M19.9993 38.3307C14.9993 38.3307 13.3327 29.9974 13.3327 19.9974C13.3327 9.9974 14.9993 1.66406 19.9993 1.66406M3.33268 26.6641H36.666M3.33268 13.3307H36.666" stroke="#908E8E" stroke-width="2.94118"/>
</g>
<defs>
<clipPath id="clip0_355_3045">
<rect width="40" height="40" fill="white"/>
</clipPath>
</defs>
</svg>
