<svg width="29" height="29" viewBox="0 0 29 29" fill="none" xmlns="http://www.w3.org/2000/svg">
<path d="M20.5423 25.375V22.9583C20.5423 21.6765 20.0331 20.4471 19.1267 19.5407C18.2202 18.6342 16.9909 18.125 15.709 18.125H6.04232C4.76044 18.125 3.53106 18.6342 2.62463 19.5407C1.71821 20.4471 1.20898 21.6765 1.20898 22.9583V25.375" stroke="#908E8E" stroke-width="2" stroke-linecap="round" stroke-linejoin="round"/>
<path d="M10.8743 13.2917C13.5437 13.2917 15.7077 11.1277 15.7077 8.45833C15.7077 5.78896 13.5437 3.625 10.8743 3.625C8.20497 3.625 6.04102 5.78896 6.04102 8.45833C6.04102 11.1277 8.20497 13.2917 10.8743 13.2917Z" stroke="#908E8E" stroke-width="2" stroke-linecap="round" stroke-linejoin="round"/>
<path d="M27.791 25.3742V22.9575C27.7902 21.8866 27.4338 20.8463 26.7777 19.9999C26.1216 19.1535 25.2029 18.549 24.166 18.2812" stroke="#908E8E" stroke-width="2" stroke-linecap="round" stroke-linejoin="round"/>
<path d="M19.334 3.78125C20.3737 4.04745 21.2952 4.6521 21.9532 5.49987C22.6113 6.34765 22.9685 7.39034 22.9685 8.46354C22.9685 9.53675 22.6113 10.5794 21.9532 11.4272C21.2952 12.275 20.3737 12.8796 19.334 13.1458" stroke="#908E8E" stroke-width="2" stroke-linecap="round" stroke-linejoin="round"/>
</svg>
