<svg width="26" height="31" viewBox="0 0 26 31" fill="none" xmlns="http://www.w3.org/2000/svg">
        <path d="M23.6905 15.6759L14.6078 28.0217L14.6078 28.0217L14.6037 28.0274C14.1386 28.6656 13.3513 29.0708 12.5106 29.0708C10.3379 29.0708 9.27292 26.7742 10.4109 25.2359L10.4146 25.2308L17.0103 16.2384L17.6872 15.3155L17.0103 14.3927L10.416 5.40211C10.4158 5.40185 10.4156 5.40158 10.4154 5.40132C9.27998 3.84736 10.3558 1.56034 12.5106 1.56034C13.3421 1.56034 14.1107 1.95812 14.5812 2.6037L14.5812 2.60371L14.5853 2.60935L23.6793 14.9706C23.8374 15.1857 23.8423 15.4533 23.6905 15.6759Z" fill="#8D8D8D" stroke="#E4E8F0" stroke-width="3.12067"/>
        <path d="M15.3017 14.9697L15.3023 14.9706C15.4604 15.1857 15.4654 15.4533 15.3135 15.6759L6.2309 28.0217L6.23088 28.0217L6.22675 28.0274C5.76166 28.6656 4.97438 29.0708 4.13363 29.0708C1.96093 29.0708 0.895966 26.7742 2.03393 25.2359L2.03769 25.2308L8.63338 16.2384L9.31025 15.3155L8.63338 14.3927L2.03769 5.40029L2.0377 5.40029L2.03392 5.39517C0.895966 3.8569 1.96093 1.56034 4.13363 1.56034C4.95884 1.56034 5.73614 1.95374 6.23523 2.61526L15.3017 14.9697Z" fill="#8D8D8D" stroke="#E4E8F0" stroke-width="3.12067"/>
        </svg>